# AST/ASF file generated using VICON BodyLanguage
# -----------------------------------------------
:version 1.10
:name VICON
:units
  mass 1.0
  length 0.45
  angle deg
:documentation
   .ast/.asf automatically generated from VICON data using
   VICON BodyBuilder and BodyLanguage model FoxedUp or BRILLIANT.MOD
:root
   order TX TY TZ RX RY RZ
   axis XYZ
   position 0 0 0  
   orientation 0 0 0 
:bonedata
  begin
     id 1 
     name lhipjoint
     direction 0.576517 -0.752066 0.319413 
     length 2.45433 
     axis 0 0 0  XYZ
  end
  begin
     id 2 
     name lfemur
     direction 0.34202 -0.939693 0  
     length 7.54459  
     axis 0 0 20  XYZ
    dof rx ry rz
    limits (-160.0 20.0)
           (-70.0 70.0)
           (-60.0 70.0)
  end
  begin
     id 3 
     name ltibia
     direction 0.34202 -0.939693 0   
     length 7.73986   
     axis 0 0 20   XYZ
    dof rx
    limits (-10.0 170.0)
  end
  begin
     id 4 
     name lfoot
     direction 0.090693 -0.249177 0.964202   
     length 2.28437   
     axis -90 7.62852e-016 20   XYZ
    dof rx rz
    limits (-45.0 90.0)
           (-70.0 20.0)
  end
  begin
     id 5 
     name ltoes
     direction 1.5356e-011 -4.21928e-011 1   
     length 1.14243   
     axis -90 7.62852e-016 20   XYZ
    dof rx
    limits (-90.0 20.0)
  end
  begin
     id 6 
     name rhipjoint
     direction -0.573937 -0.753736 0.320122   
     length 2.44889  
     axis 0 0 0  XYZ 
  end
  begin
     id 7 
     name rfemur
     direction -0.34202 -0.939693 0   
     length 7.50166   
     axis 0 0 -20   XYZ
    dof rx ry rz
    limits (-160.0 20.0)
           (-70.0 70.0)
           (-70.0 60.0)
  end
  begin
     id 8 
     name rtibia
     direction -0.34202 -0.939693 0   
     length 7.54266   
     axis 0 0 -20   XYZ
    dof rx
    limits (-10.0 170.0)
 end
 begin
     id 9 
     name rfoot
     direction -0.114017 -0.31326 0.942798   
     length 2.34212  
     axis -90 -7.62852e-016 -20   XYZ
    dof rx rz
    limits (-45.0 90.0)
           (-20.0 70.0)
  end
  begin
     id 10 
     name rtoes
     direction -1.53557e-011 -4.21867e-011 1   
     length 1.16246   
     axis -90 -7.62852e-016 -20   XYZ
    dof rx
    limits (-90.0 20.0)
  end
  begin
     id 11 
     name lowerback
     direction -0.0228371 0.999155 -0.034167   
     length 2.0537   
     axis 0 0 0   XYZ
    dof rx ry rz
    limits (-20.0 45.0)
           (-30.0 30.0)
           (-30.0 30.0)
  end
  begin
     id 12 
     name upperback
     direction 0.0198981 0.999794 0.00389455   
     length 2.05302   
     axis 0 0 0   XYZ
    dof rx ry rz
    limits (-20.0 45.0)
           (-30.0 30.0)
           (-30.0 30.0)
  end
  begin
     id 13 
     name thorax
     direction 0.0304566 0.99935 0.0192987   
     length 2.05315   
     axis 0 0 0   XYZ
    dof rx ry rz
    limits (-20.0 45.0)
           (-30.0 30.0)
           (-30.0 30.0)
  end
  begin
     id 14 
     name lowerneck
     direction -0.0196762 0.99417 0.106017   
     length 1.82056   
     axis 0 0 0   XYZ
    dof rx ry rz
    limits (-20.0 45.0)
           (-30.0 30.0)
           (-30.0 30.0)
  end
  begin
     id 15 
     name upperneck
     direction 0.00517787 0.9802 -0.197944   
     length 1.83835   
     axis 0 0 0   XYZ
    dof rx ry rz
    limits (-20.0 45.0)
           (-30.0 30.0)
           (-30.0 30.0)
  end
  begin
     id 16
     name head
     direction 0.00211419 0.996945 -0.078081  
     length 1.85629  
     axis 0 0 0   XYZ
    dof rx ry rz
    limits (-20.0 45.0)
           (-30.0 30.0)
           (-30.0 30.0)
  end
  begin
     id 17 
     name lclavicle
     direction 0.930001 0.365811 -0.0357824  
     length 3.81961  
     axis 0 0 0   XYZ
    dof ry rz
    limits (-20.0 10.0)
           (0.0 20.0)
  end
  begin
     id 18 
     name lhumerus
     direction 1 -4.48968e-011 -3.06644e-027   
     length 5.14507   
     axis 180 -30 -90   XYZ
    dof rx ry rz
    limits (-60.0 90.0)
           (-90.0 90.0)
           (-90.0 90.0)
  end
  begin
     id 19
     name lradius
     direction 1 -4.48965e-011 9.06925e-028   
     length 3.50646   
     axis 180 -30 -90   XYZ
    dof rx
    limits (-10.0 170.0)
  end
  begin
     id 20
     name lwrist
     direction 1 -4.48957e-011 1.03922e-027   
     length 1.75323   
     axis -2.56395e-016 90 90   XYZ
    dof ry
    limits (-180.0 0.0)
 end
  begin
     id 21 
     name lhand
     direction 1 -4.48967e-011 2.08017e-027   
     length 0.629969   
     axis -1.32723e-015 90 90   XYZ
    dof rx rz
    limits (-90.0 90.0)
           (-45.0 45.0)
  end
  begin
     id 22 
     name lfingers
     direction 1 -4.49089e-011 4.20095e-027   
     length 0.507897   
     axis -2.6545e-015 90 90   XYZ
    dof rx
    limits (0.0 90.0)
  end
  begin
     id 23
     name lthumb
     direction 0.707107 -6.35001e-011 0.707107   
     length 0.729241   
     axis -90 45 5.05613e-014   XYZ
    dof rx rz
    limits (-45.0 45.0)
           (-45.0 45.0)
  end
  begin
     id 24 
     name rclavicle
     direction -0.881882 0.464123 -0.0829113   
     length 3.47515  
     axis 0 0 0   XYZ 
    dof ry rz
    limits (-10.0 20.0)
           (-20.0 0.0)
  end
  begin
     id 25 
     name rhumerus
     direction -1 -4.48961e-011 -1.55672e-027  
     length 5.232   
     axis 180 30 90   XYZ
    dof rx ry rz
    limits (-90.0 60.0)
           (-90.0 90.0)
           (-90.0 90.0)
  end
  begin
     id 26 
     name rradius
     direction -1 -4.48963e-011 6.18178e-029   
     length 3.65641   
     axis 180 30 90   XYZ
    dof rx
    limits (-10.0 170.0)
  end
  begin
     id 27 
     name rwrist
     direction -1 -4.48982e-011 1.04136e-027   
     length 1.8282   
     axis -2.56395e-016 -90 -90   XYZ
    dof ry
    limits (-180.0 0.0)
  end
  begin
     id 28
     name rhand
     direction -1 -4.48929e-011 2.07378e-027   
     length 0.656807   
     axis -1.32723e-015 -90 -90   XYZ
    dof rx rz
    limits (-90.0 90.0)
           (-45.0 45.0)
  end
  begin
     id 29
     name rfingers
     direction -1 -4.489e-011 4.13816e-027   
     length 0.529535   
     axis -2.6545e-015 -90 -90   XYZ
    dof rx
    limits (0.0 90.0)
  end
  begin
     id 30
     name rthumb
     direction -0.707107 -6.34843e-011 0.707107   
     length 0.760309   
     axis -90 -45 -5.05613e-014   XYZ
    dof rx rz
    limits (-45.0 45.0)
           (-45.0 45.0)
  end
:hierarchy
  begin
    root lhipjoint rhipjoint lowerback
    lhipjoint lfemur
    lfemur ltibia
    ltibia lfoot
    lfoot ltoes
    rhipjoint rfemur
    rfemur rtibia
    rtibia rfoot
    rfoot rtoes
    lowerback upperback
    upperback thorax
    thorax lowerneck lclavicle rclavicle
    lowerneck upperneck
    upperneck head
    lclavicle lhumerus
    lhumerus lradius
    lradius lwrist
    lwrist lhand lthumb
    lhand lfingers
    rclavicle rhumerus
    rhumerus rradius
    rradius rwrist
    rwrist rhand rthumb
    rhand rfingers
  end

#!OML:ASF H:\ManfredETheater\Project 1\Capture day 1\Session 1\subject.ASF
:FULLY-SPECIFIED
:DEGREES
16
root 1.65138 17.156 34.1286 -175.567 -5.52044 178.809
lowerback -0.85776 -0.54148 -2.60981
upperback -3.91083 -0.877372 1.32112
thorax -3.48867 -0.400019 2.84809
lowerneck -19.6332 -1.31377 -3.29341
upperneck 24.0147 -1.58537 0.722216
head 11.0588 -1.16549 0.529396
rclavicle 6.63444e-015 -1.35174e-014
rhumerus -36.3263 -6.08653 -82.0564
rradius 29.6618
rwrist 2.63488
rhand -18.745 -11.7334
rfingers 7.12502
rthumb 7.55126 -41.5786
lclavicle 6.63444e-015 -1.35174e-014
lhumerus -33.2868 6.38719 87.1985
lradius 26.732
lwrist -18.4414
lhand -8.79118 9.14022
lfingers 7.12502
lthumb 17.1474 38.4036
rfemur -12.3158 -0.589214 16.2572
rtibia 33.5259
rfoot -21.5713 -14.0338
rtoes 5.92403
lfemur -15.3667 -4.86445 -19.0121
ltibia 35.4244
lfoot -21.2486 1.72959
ltoes 0.584865
17
root 1.65239 17.1561 34.1293 -175.565 -5.52376 178.812
lowerback -0.843434 -0.55181 -2.61405
upperback -3.93093 -0.893075 1.31314
thorax -3.51667 -0.407638 2.84305
lowerneck -19.6721 -1.29934 -3.26255
upperneck 24.0545 -1.56953 0.701454
head 11.0803 -1.15902 0.518616
rclavicle 1.2921e-015 -1.66979e-014
rhumerus -36.3063 -6.20907 -82.019
rradius 29.6105
rwrist 2.67416
rhand -18.7297 -11.8118
rfingers 7.12502
rthumb 7.56607 -41.6565
lclavicle 1.2921e-015 -1.66979e-014
lhumerus -33.3048 6.56001 87.0932
lradius 26.6058
lwrist -18.5571
lhand -8.99244 9.09083
lfingers 7.12502
lthumb 16.9537 38.3709
rfemur -12.3176 -0.585467 16.2641
rtibia 33.5221
rfoot -21.5726 -14.0369
rtoes 5.93474
lfemur -15.3708 -4.85362 -19.0046
ltibia 35.4217
lfoot -21.2467 1.71694
ltoes 0.600893
18
root 1.65341 17.1564 34.1299 -175.559 -5.52114 178.814
lowerback -0.830826 -0.56069 -2.61949
upperback -3.95581 -0.907251 1.30531
thorax -3.54877 -0.414498 2.83886
lowerneck -19.702 -1.28491 -3.23266
upperneck 24.0879 -1.55458 0.684223
head 11.0978 -1.15252 0.509226
rclavicle 8.97016e-015 3.57812e-015
rhumerus -36.2958 -6.33039 -81.9797
rradius 29.5615
rwrist 2.71451
rhand -18.7135 -11.8902
rfingers 7.12502
rthumb 7.58166 -41.7343
lclavicle 8.97016e-015 3.57812e-015
lhumerus -33.3281 6.73197 86.9876
lradius 26.4777
lwrist -18.6737
lhand -9.19035 9.05186
lfingers 7.12502
lthumb 16.7632 38.3482
rfemur -12.3252 -0.58092 16.2696
rtibia 33.517
rfoot -21.5717 -14.0349
rtoes 5.94573
lfemur -15.3785 -4.84766 -18.998
ltibia 35.4179
lfoot -21.2438 1.71411
ltoes 0.614856
19
root 1.65451 17.1568 34.1305 -175.549 -5.51437 178.82
lowerback -0.818713 -0.569595 -2.62456
upperback -3.9858 -0.921861 1.30005
thorax -3.58588 -0.421583 2.83722
lowerneck -19.7176 -1.26972 -3.20704
upperneck 24.1128 -1.53922 0.672457
head 11.1095 -1.14553 0.50271
rclavicle -8.89561e-015 1.23246e-014
rhumerus -36.2954 -6.44151 -81.9404
rradius 29.5143
rwrist 2.75421
rhand -18.7013 -11.9508
rfingers 7.12502
rthumb 7.59348 -41.7945
lclavicle -8.89561e-015 1.23246e-014
lhumerus -33.3594 6.90268 86.8834
lradius 26.3505
lwrist -18.7889
lhand -9.38873 9.0158
lfingers 7.12502
lthumb 16.5722 38.3282
rfemur -12.3366 -0.574339 16.2782
rtibia 33.5108
rfoot -21.5692 -14.0312
rtoes 5.95575
lfemur -15.3887 -4.84585 -18.9885
ltibia 35.4135
lfoot -21.2397 1.72083
ltoes 0.616924
20
root 1.65571 17.1573 34.131 -175.536 -5.50767 178.824
lowerback -0.80676 -0.579884 -2.63277
upperback -4.02093 -0.938775 1.29644
thorax -3.62804 -0.429714 2.83919
lowerneck -19.7209 -1.25442 -3.18532
upperneck 24.1302 -1.52419 0.665442
head 11.116 -1.13842 0.498628
rclavicle -1.54058e-015 1.59028e-015
rhumerus -36.3056 -6.53954 -81.9023
rradius 29.4703
rwrist 2.79273
rhand -18.6931 -11.9753
rfingers 7.12502
rthumb 7.60143 -41.8187
lclavicle -1.54058e-015 1.59028e-015
lhumerus -33.3976 7.07055 86.7813
lradius 26.2259
lwrist -18.9041
lhand -9.58503 8.98261
lfingers 7.12502
lthumb 16.3832 38.3107
rfemur -12.3524 -0.569036 16.2867
rtibia 33.5039
rfoot -21.5658 -14.0269
rtoes 5.96726
lfemur -15.4031 -4.84744 -18.9791
ltibia 35.4087
lfoot -21.2342 1.73208
ltoes 0.60442
21
root 1.65706 17.1578 34.1316 -175.519 -5.50124 178.83
lowerback -0.795936 -0.592455 -2.64365
upperback -4.05906 -0.958985 1.29625
thorax -3.67241 -0.439391 2.84633
lowerneck -19.7115 -1.23879 -3.16978
upperneck 24.1382 -1.50842 0.663707
head 11.1166 -1.13079 0.497728
rclavicle 1.01629e-014 -1.59028e-015
rhumerus -36.3225 -6.61878 -81.866
rradius 29.4291
rwrist 2.82943
rhand -18.6892 -11.9647
rfingers 7.12502
rthumb 7.60515 -41.8079
lclavicle 1.01629e-014 -1.59028e-015
lhumerus -33.4404 7.23518 86.6834
lradius 26.1054
lwrist -19.0182
lhand -9.77541 8.95074
lfingers 7.12502
lthumb 16.1999 38.2938
rfemur -12.3713 -0.563733 16.297
rtibia 33.4964
rfoot -21.561 -14.023
rtoes 5.98447
lfemur -15.4208 -4.85328 -18.9678
ltibia 35.404
lfoot -21.2273 1.74781
ltoes 0.583219
